<svg xmlns="http://www.w3.org/2000/svg" viewBox="0 0 253.62 91.7"><defs><style>.cls-1{fill:#fff;}</style></defs><g id="Layer_2" data-name="Layer 2"><g id="Layer_1-2" data-name="Layer 1"><path class="cls-1" d="M39.8,30.6a112.56,112.56,0,0,0,12.78-5,1.09,1.09,0,0,1-.1.26c-1.76,3.1-3.48,6.24-5.3,9.31A24.73,24.73,0,0,1,33,46.44c-1.48.48-3,1-4.44,1.52.53-.08,1.06-.13,1.59-.24a67.54,67.54,0,0,0,11.59-3.83c.14,0,.27-.12.42-.17h.12c0,.06,0,.1-.06.14a49.09,49.09,0,0,1-8.77,11A34.07,34.07,0,0,1,23,61.16c-1.91.77-3.81,1.54-5.66,2.42-1.16.55-2.22,1.33-3.33,2a3.19,3.19,0,0,1,.11-.34,136,136,0,0,1,14-27.6A126.11,126.11,0,0,1,45,16.84c2.29-2.25,4.76-4.33,7.14-6.48a.91.91,0,0,0,.28-.33l-.3.18a99.9,99.9,0,0,0-10.86,9,105.11,105.11,0,0,0-15,18.34A158,158,0,0,0,6.55,80.11C6.27,81.07,6,82,5.76,83a1.09,1.09,0,0,1-.25.46,13.17,13.17,0,0,0-4.28,5.91A.49.49,0,0,1,1,89.6a24.93,24.93,0,0,1-.71-2.73C.12,85.77.07,84.66,0,83.56a1.61,1.61,0,0,1,.16-.67C1.93,79,3.72,75,5.49,71.11c1-2.12,1.89-4.25,2.81-6.39a2,2,0,0,0,.14-.88c-.1-2-.29-4-.35-5.93a22.42,22.42,0,0,1,2.3-10.08c.29-.62.6-1.24.91-1.86a3.79,3.79,0,0,1,.2-.34l.14,0c0,.93.08,1.86.16,2.79a9.08,9.08,0,0,0,.45,2.73s.08,0,.08-.06a26.74,26.74,0,0,1,1.51-9.47A64.82,64.82,0,0,1,25,20.62,22.44,22.44,0,0,1,29.83,16a6.41,6.41,0,0,1,.82-.45,19.25,19.25,0,0,0-1.33,6.73c.06,0,.1-.06.11-.09A43,43,0,0,1,40.58,8.7,37.34,37.34,0,0,1,56.45.78,33.75,33.75,0,0,1,66.87.15l.25.05c-.45.51-.91,1-1.3,1.48a33.65,33.65,0,0,0-3.33,6c-1.4,3-2.72,6-4.41,8.8a23,23,0,0,1-5.47,6.63,24.79,24.79,0,0,1-3,1.89c-3,1.66-6,3.29-8.95,4.94-.3.16-.58.35-.88.53Z"/><path class="cls-1" d="M63.14,78.16c-.75.45-1.49.93-2.26,1.35a23.31,23.31,0,0,1-9.81,2.55,54.52,54.52,0,0,1-13.3-1.21c-1.92-.37-3.83-.79-5.74-1.17a3.3,3.3,0,0,0-.83-.09c-.43,0-.57.24-.39.64s.38.62.53.94a11.8,11.8,0,0,1,.83,1.94A2.49,2.49,0,0,1,30.89,86a5.15,5.15,0,0,1-3.87.53c-1.93-.44-3.82-1-5.73-1.58l-3.15-.89a2.88,2.88,0,0,0-.83-.06c-.44,0-.59.26-.42.67a4.31,4.31,0,0,0,.38.74c.34.59.72,1.15,1,1.74a2.35,2.35,0,0,1-1.22,3.67,10.48,10.48,0,0,1-4.21.84,17.91,17.91,0,0,1-7.52-1.27C4.9,90.23,4.49,90,4,89.69c1.15.33,2.2.69,3.27.92a17.62,17.62,0,0,0,7,.29A6,6,0,0,0,16,90.26a1.55,1.55,0,0,0,.75-2.06A8.89,8.89,0,0,0,16,86.74c-.34-.55-.76-1.06-1.05-1.64A1.32,1.32,0,0,1,15.82,83a5.92,5.92,0,0,1,3.12-.17c2.37.44,4.72,1,7.07,1.48.78.16,1.55.31,2.34.41a1.3,1.3,0,0,0,1.43-1.89c-.18-.45-.45-.86-.67-1.29a9.64,9.64,0,0,1-.62-1.3,1,1,0,0,1,.63-1.42,3.75,3.75,0,0,1,2.16-.24c2,.35,4,.72,6,1.15a68,68,0,0,0,10.33,1.66A26.74,26.74,0,0,0,62.8,78.16l.27-.14C63.1,78.09,63.12,78.12,63.14,78.16Z"/><path class="cls-1" d="M78.53,56.58H63.82l-2.53,7.17h-6L67.86,28.58h6.67L87.12,63.75H81.05Zm-1.62-4.7L71.2,35.56,65.44,51.88Z"/><path class="cls-1" d="M96.79,63a10.36,10.36,0,0,1-4.11-3.23,8,8,0,0,1-1.62-4.58h6a4.09,4.09,0,0,0,1.69,3,6.17,6.17,0,0,0,3.87,1.19,6.43,6.43,0,0,0,3.76-.94,2.8,2.8,0,0,0,1.34-2.4,2.45,2.45,0,0,0-1.49-2.32A27.8,27.8,0,0,0,101.47,52a45.28,45.28,0,0,1-5.11-1.67A9,9,0,0,1,93,47.89a6.51,6.51,0,0,1-1.44-4.4,6.85,6.85,0,0,1,1.32-4.07,8.65,8.65,0,0,1,3.76-2.9,14,14,0,0,1,5.64-1.06,11.64,11.64,0,0,1,7.65,2.4A8.62,8.62,0,0,1,113,44.4h-5.76a4.09,4.09,0,0,0-1.52-3A5.68,5.68,0,0,0,102,40.31a5.93,5.93,0,0,0-3.48.86,2.66,2.66,0,0,0-1.22,2.27,2.47,2.47,0,0,0,.81,1.87,6,6,0,0,0,2,1.19c.78.28,1.92.65,3.44,1.08a37.08,37.08,0,0,1,5,1.65,9.29,9.29,0,0,1,3.36,2.45A6.46,6.46,0,0,1,113.34,56,7.25,7.25,0,0,1,112,60.22a8.82,8.82,0,0,1-3.72,2.93,13.93,13.93,0,0,1-5.63,1.06A14.08,14.08,0,0,1,96.79,63Z"/><path class="cls-1" d="M123.78,63a10.32,10.32,0,0,1-4.12-3.23A8.11,8.11,0,0,1,118,55.21h6a4.1,4.1,0,0,0,1.7,3,6.13,6.13,0,0,0,3.86,1.19,6.49,6.49,0,0,0,3.77-.94,2.82,2.82,0,0,0,1.34-2.4,2.46,2.46,0,0,0-1.49-2.32A28,28,0,0,0,128.45,52a44.36,44.36,0,0,1-5.1-1.67,8.91,8.91,0,0,1-3.41-2.47,6.51,6.51,0,0,1-1.44-4.4,6.84,6.84,0,0,1,1.31-4.07,8.71,8.71,0,0,1,3.76-2.9,14.08,14.08,0,0,1,5.64-1.06,11.6,11.6,0,0,1,7.65,2.4A8.59,8.59,0,0,1,140,44.4h-5.76a4.08,4.08,0,0,0-1.51-3A5.68,5.68,0,0,0,129,40.31a5.94,5.94,0,0,0-3.49.86,2.65,2.65,0,0,0-1.21,2.27,2.47,2.47,0,0,0,.81,1.87,5.77,5.77,0,0,0,2,1.19c.77.28,1.92.65,3.43,1.08a37.08,37.08,0,0,1,5,1.65,9.12,9.12,0,0,1,3.36,2.45A6.52,6.52,0,0,1,140.33,56,7.19,7.19,0,0,1,139,60.22a8.73,8.73,0,0,1-3.71,2.93A15.32,15.32,0,0,1,123.78,63Z"/><path class="cls-1" d="M146.85,31.16a3.66,3.66,0,1,1,5.2,0,3.72,3.72,0,0,1-5.2,0Zm5.45,4.75V63.75h-5.76V35.91Z"/><path class="cls-1" d="M176.84,36.74A11,11,0,0,1,180.75,40v-4h5.81v28.3A14.34,14.34,0,0,1,185,71.06a11.74,11.74,0,0,1-4.68,4.72A14.63,14.63,0,0,1,173,77.5a15.91,15.91,0,0,1-9.4-2.65,9.78,9.78,0,0,1-4.24-7.21H165a6.2,6.2,0,0,0,2.8,3.52A9.52,9.52,0,0,0,173,72.5a7.65,7.65,0,0,0,5.63-2.13c1.44-1.41,2.15-3.47,2.15-6.16V59.56a11.95,11.95,0,0,1-9.65,4.65,12.42,12.42,0,0,1-6.64-1.85,13,13,0,0,1-4.76-5.15,15.89,15.89,0,0,1-1.74-7.5,15.41,15.41,0,0,1,1.74-7.43,12.82,12.82,0,0,1,4.76-5,12.64,12.64,0,0,1,6.64-1.79A12.47,12.47,0,0,1,176.84,36.74Zm2.72,8.06a8.32,8.32,0,0,0-3.1-3.23,8.17,8.17,0,0,0-4.15-1.11,8.14,8.14,0,0,0-7.25,4.27,10,10,0,0,0-1.19,5,10.38,10.38,0,0,0,1.19,5,8.41,8.41,0,0,0,3.13,3.31,8.13,8.13,0,0,0,8.27,0,8.21,8.21,0,0,0,3.1-3.26,10.1,10.1,0,0,0,1.19-5A10,10,0,0,0,179.56,44.8Z"/><path class="cls-1" d="M214.08,36.82a9.78,9.78,0,0,1,4.07,4,13.39,13.39,0,0,1,1.46,6.47V63.75H213.9V48.19A8.1,8.1,0,0,0,212,42.45a6.66,6.66,0,0,0-5.1-2,6.73,6.73,0,0,0-5.13,2,8.06,8.06,0,0,0-1.9,5.74V63.75h-5.76V35.91h5.76v3.18a9.61,9.61,0,0,1,3.62-2.67,11.51,11.51,0,0,1,4.67-1A12.5,12.5,0,0,1,214.08,36.82Z"/><path class="cls-1" d="M226.76,42.28a12.69,12.69,0,0,1,11.4-6.82,12.26,12.26,0,0,1,5.73,1.28A11.74,11.74,0,0,1,247.81,40v-4h5.81V63.75h-5.81V59.61a11.47,11.47,0,0,1-4,3.28,12.88,12.88,0,0,1-12.33-.53,13,13,0,0,1-4.73-5.15,15.89,15.89,0,0,1-1.74-7.5A15.41,15.41,0,0,1,226.76,42.28Zm19.86,2.52a8.34,8.34,0,0,0-3.11-3.23,8.13,8.13,0,0,0-4.14-1.11,8.28,8.28,0,0,0-4.14,1.08,8.16,8.16,0,0,0-3.11,3.19,10,10,0,0,0-1.19,5,10.38,10.38,0,0,0,1.19,5,8.34,8.34,0,0,0,3.13,3.31,8.11,8.11,0,0,0,8.26,0,8.23,8.23,0,0,0,3.11-3.26,11.16,11.16,0,0,0,0-10Z"/></g></g></svg>