<?xml version="1.0" encoding="utf-8"?>
<!-- Generator: Adobe Illustrator 25.4.1, SVG Export Plug-In . SVG Version: 6.00 Build 0)  -->
<svg version="1.1" id="Layer_1" xmlns="http://www.w3.org/2000/svg" xmlns:xlink="http://www.w3.org/1999/xlink" x="0px" y="0px"
	 viewBox="0 0 141 141" style="enable-background:new 0 0 141 141;" xml:space="preserve">
<style type="text/css">
	.st0{fill:url(#SVGID_1_);}
	.st1{fill:url(#SVGID_00000034784073976681230430000008795359065215021451_);}
</style>
<g>
	<linearGradient id="SVGID_1_" gradientUnits="userSpaceOnUse" x1="7.1257" y1="69.2066" x2="458.1809" y2="69.2066">
		<stop  offset="0" style="stop-color:#4E9DC8"/>
		<stop  offset="1" style="stop-color:#110B79"/>
	</linearGradient>
	<path class="st0" d="M78.16,51.81c5.34-1.66,10.51-3.78,15.67-6.1c-0.05,0.13-0.07,0.23-0.12,0.31c-2.16,3.81-4.27,7.65-6.5,11.42
		c-4.03,6.81-9.89,11.36-17.41,13.79c-1.82,0.59-3.64,1.19-5.45,1.87c0.65-0.1,1.31-0.16,1.96-0.3c4.9-1.04,9.58-2.79,14.2-4.69
		c0.17-0.07,0.34-0.15,0.52-0.22c0.03-0.01,0.06,0,0.14,0.01c-0.03,0.07-0.04,0.12-0.07,0.17c-3.02,4.93-6.44,9.54-10.75,13.45
		c-3.76,3.42-8.09,5.88-12.78,7.76c-2.33,0.94-4.67,1.88-6.93,2.96c-1.43,0.68-2.73,1.63-4.09,2.45c0.03-0.09,0.08-0.25,0.14-0.41
		c4.42-11.93,10.12-23.21,17.12-33.84c6.05-9.2,12.88-17.77,20.73-25.5c2.8-2.76,5.83-5.3,8.75-7.94c0.13-0.11,0.26-0.22,0.34-0.41
		c-0.12,0.08-0.25,0.15-0.37,0.23c-4.7,3.38-9.13,7.07-13.31,11.08c-7.04,6.75-13.04,14.35-18.38,22.48
		C50.96,76.57,42.83,93.91,37.4,112.51c-0.34,1.17-0.63,2.36-0.97,3.54c-0.06,0.2-0.16,0.43-0.31,0.56
		c-2.44,1.92-4.17,4.35-5.25,7.25c-0.03,0.09-0.09,0.17-0.28,0.28c-0.3-1.12-0.69-2.22-0.87-3.35c-0.21-1.34-0.27-2.7-0.35-4.05
		c-0.02-0.27,0.08-0.57,0.19-0.83c2.17-4.81,4.37-9.62,6.54-14.43c1.17-2.6,2.31-5.22,3.44-7.84c0.14-0.33,0.2-0.72,0.18-1.08
		c-0.13-2.42-0.36-4.85-0.44-7.27c-0.14-4.36,1.05-8.43,2.83-12.35c0.35-0.77,0.73-1.53,1.11-2.29c0.07-0.14,0.16-0.28,0.24-0.41
		c0.06,0.01,0.12,0.02,0.18,0.02c0.06,1.14,0.1,2.28,0.19,3.42c0.08,1.13,0.14,2.27,0.56,3.35c0.05-0.04,0.09-0.05,0.09-0.07
		c-0.18-4,0.64-7.85,1.85-11.61c3.02-9.41,7.5-18.05,13.7-25.77c1.72-2.14,3.62-4.1,5.91-5.65c0.31-0.21,0.63-0.39,1-0.56
		c-0.89,2.68-1.72,5.35-1.63,8.25c0.07-0.05,0.12-0.07,0.14-0.11c3.36-6.5,8.05-11.92,13.66-16.55c5.74-4.73,12.17-8.1,19.46-9.71
		c4.21-0.93,8.47-1.16,12.77-0.77c0.09,0.01,0.19,0.04,0.31,0.06c-0.55,0.63-1.11,1.19-1.59,1.82c-1.71,2.25-2.88,4.8-4.08,7.33
		c-1.72,3.64-3.34,7.33-5.41,10.79c-1.82,3.05-3.88,5.92-6.71,8.12c-1.15,0.89-2.44,1.61-3.71,2.32c-3.65,2.04-7.32,4.04-10.97,6.06
		c-0.37,0.2-0.72,0.43-1.08,0.65C78.12,51.69,78.14,51.75,78.16,51.81z"/>
	
		<linearGradient id="SVGID_00000114753971252025053530000009702564932983851651_" gradientUnits="userSpaceOnUse" x1="7.1257" y1="118.3553" x2="458.1809" y2="118.3553">
		<stop  offset="0" style="stop-color:#4E9DC8"/>
		<stop  offset="1" style="stop-color:#110B79"/>
	</linearGradient>
	<path style="fill:url(#SVGID_00000114753971252025053530000009702564932983851651_);" d="M106.77,110.12
		c-0.92,0.55-1.82,1.14-2.77,1.65c-3.76,2-7.81,2.89-12.03,3.13c-5.51,0.31-10.91-0.46-16.3-1.49c-2.35-0.45-4.69-0.96-7.04-1.43
		c-0.33-0.07-0.67-0.12-1.01-0.11c-0.53,0.02-0.7,0.3-0.48,0.79c0.18,0.4,0.46,0.75,0.65,1.15c0.37,0.78,0.8,1.54,1.02,2.37
		c0.4,1.48-0.23,2.83-1.57,3.59c-1.49,0.86-3.13,1.02-4.75,0.64c-2.36-0.54-4.68-1.27-7.02-1.93c-1.29-0.36-2.58-0.74-3.87-1.09
		c-0.32-0.09-0.67-0.09-1.01-0.08c-0.54,0.03-0.72,0.32-0.52,0.83c0.12,0.31,0.29,0.61,0.47,0.9c0.42,0.72,0.88,1.41,1.28,2.14
		c1.08,1.99,0.56,3.54-1.5,4.5c-1.63,0.76-3.39,0.98-5.16,1.02c-3.17,0.08-6.28-0.3-9.22-1.55c-0.56-0.24-1.07-0.56-1.71-0.9
		c1.42,0.41,2.7,0.85,4.01,1.13c2.84,0.61,5.71,0.89,8.6,0.36c0.75-0.14,1.51-0.42,2.18-0.79c0.99-0.54,1.31-1.47,0.92-2.53
		c-0.23-0.63-0.61-1.21-0.96-1.78c-0.41-0.68-0.93-1.31-1.29-2.01c-0.64-1.25-0.26-2.12,1.07-2.59c1.25-0.44,2.56-0.45,3.83-0.21
		c2.9,0.54,5.78,1.21,8.67,1.81c0.95,0.2,1.9,0.38,2.86,0.51c1.6,0.22,2.22-1.14,1.76-2.32c-0.22-0.55-0.55-1.05-0.82-1.58
		c-0.27-0.53-0.58-1.04-0.77-1.6c-0.29-0.81,0-1.39,0.78-1.74c0.85-0.37,1.76-0.44,2.65-0.29c2.47,0.43,4.95,0.88,7.4,1.41
		c4.18,0.91,8.37,1.78,12.66,2.03c6.55,0.37,12.8-0.65,18.57-3.94c0.11-0.06,0.23-0.11,0.34-0.17
		C106.72,110.03,106.75,110.07,106.77,110.12z"/>
</g>
</svg>
